<svg fill="none" xmlns="http://www.w3.org/2000/svg" viewBox="-44 144 610.28 440">   <path d="M306 498L333 230L515.5 247.5L479.5 516.5L306 498Z" fill="#DDE4E6"></path>   <path d="M16 523V206.5H290L294.5 523H16Z" fill="#58B5FF" stroke="black"></path>   <path d="M492.5 242.8C510.9 244.4 514.167 260.133 513.5 267.8" stroke="black" stroke-width="21"></path>   <path d="M450 515C470.8 519.8 479.333 505.667 481 498" stroke="black" stroke-width="21"></path>   <line x1="10.9999" y1="229.959" x2="11.9999" y2="498.959" stroke="black" stroke-width="22"></line>   <path d="M11 232C11.8 205.6 30 199 39 199" stroke="black" stroke-width="22"></path>   <path d="M296.25 232C295.45 205.6 277.25 199 268.25 199" stroke="black" stroke-width="22"></path>   <line x1="38" y1="199" x2="269" y2="199" stroke="black" stroke-width="22"></line>   <path d="M296.243 229.978L296.243 499" stroke="black" stroke-width="22"></path>   <path d="M12 498C12 519.6 30 527.667 39 529" stroke="black" stroke-width="22"></path>   <line x1="37" y1="529" x2="272" y2="529" stroke="black" stroke-width="22"></line>   <path d="M341.559 213.565C335.803 212.858 330.564 216.951 329.857 222.707C329.151 228.463 333.244 233.701 338.999 234.408L341.559 213.565ZM340.279 223.986L338.999 234.408L493.837 253.42L495.116 242.998L496.396 232.576L341.559 213.565L340.279 223.986Z" fill="black"></path>   <path d="M513.751 266.258L481.21 500.024" stroke="black" stroke-width="21"></path>   <line x1="288.092" y1="495.278" x2="451.862" y2="515.387" stroke="black" stroke-width="21"></line>   <path d="M268 529C291.216 529 296.329 508.333 295.984 498" stroke="black" stroke-width="22"></path>   <line x1="16.6864" y1="448.499" x2="110.499" y2="337.314" stroke="black" stroke-width="22" stroke-linecap="round"></line>   <path d="M212 452L113 338" stroke="black" stroke-width="22" stroke-linecap="round"></path>   <path d="M227 385C222.97 380.454 216.018 380.035 211.472 384.065C206.926 388.094 206.507 395.046 210.536 399.593L227 385ZM296.768 480.296L305 473L227 385L218.768 392.296L210.536 399.593L288.536 487.593L296.768 480.296Z" fill="black"></path>   <line x1="185.589" y1="422.871" x2="219.589" y2="391.871" stroke="black" stroke-width="22"></line>   <path d="M247 298.5C247 320.868 228.868 339 206.5 339C184.132 339 166 320.868 166 298.5C166 276.132 184.132 258 206.5 258C228.868 258 247 276.132 247 298.5ZM188.275 298.5C188.275 308.565 196.435 316.725 206.5 316.725C216.565 316.725 224.725 308.565 224.725 298.5C224.725 288.435 216.565 280.275 206.5 280.275C196.435 280.275 188.275 288.435 188.275 298.5Z" fill="black"></path>   <path d="M461 317.5C461 337.106 445.106 353 425.5 353C405.894 353 390 337.106 390 317.5C390 297.894 405.894 282 425.5 282C445.106 282 461 297.894 461 317.5ZM409.525 317.5C409.525 326.323 416.677 333.475 425.5 333.475C434.323 333.475 441.475 326.323 441.475 317.5C441.475 308.677 434.323 301.525 425.5 301.525C416.677 301.525 409.525 308.677 409.525 317.5Z" fill="black"></path>   <path d="M432.067 399.207C428.809 394.41 422.279 393.161 417.482 396.419C412.684 399.677 411.436 406.207 414.693 411.004L432.067 399.207ZM482.313 491.898L491 486L432.067 399.207L423.38 405.106L414.693 411.004L473.627 497.797L482.313 491.898Z" fill="black"></path>   <path d="M394.861 423.879L419.673 406.998" stroke="black" stroke-width="21" stroke-linecap="round"></path>   <path d="M347.426 347.738L393.565 422.849" stroke="black" stroke-width="21" stroke-linecap="round"></path> </svg>