<svg width="525" height="540" viewBox="0 0 525 540" fill="none" xmlns="http://www.w3.org/2000/svg">
<path d="M35.5 41L50 158H258L269.5 41L213 83.5L152.5 13.5L95 83.5L35.5 41Z" fill="#FDC544" stroke="black"/>
<path d="M150.399 0.605092C154.665 -0.872543 159.58 0.386428 162.572 4.10607L214.1 68.1715L264 27.026C267.018 24.538 270.965 23.9313 274.426 25.0631C274.512 25.0721 274.598 25.0785 274.684 25.0895C280.71 25.8616 284.969 31.3723 284.197 37.3981L268.911 156.722C268.465 160.198 266.442 163.083 263.655 164.756C261.807 166.163 259.502 167 257 167H50.0005C47.0032 167 44.2872 165.799 42.3032 163.855C40.3485 162.148 38.985 159.749 38.6294 156.972L23.3432 37.6481C22.5742 31.6452 26.7982 26.1542 32.7876 25.3492C36.4236 23.8467 40.7483 24.3486 43.9956 27.026L93.5727 67.9049L144.712 4.32384C146.226 2.44185 148.233 1.19185 150.399 0.605092ZM103.745 90.3619C99.9371 95.0958 93.0127 95.8472 88.2788 92.0397C88.065 91.8677 87.862 91.6867 87.6645 91.5026C87.4392 91.3435 87.2157 91.1779 86.9995 90.9996L48.2651 59.0602L59.2749 145H248.233L259.184 59.5104L220.997 90.9996C219.794 91.9909 218.444 92.6819 217.036 93.0856C212.504 95.3602 206.846 94.2557 203.54 90.1442L153.73 28.2154L103.745 90.3619Z" fill="black"/>
<path d="M306 498L333 230L515.5 247.5L479.5 516.5L306 498Z" fill="#DDE4E6"/>
<path d="M16 523V206.5H290L294.5 523H16Z" fill="#58B5FF" stroke="black"/>
<path d="M492.5 242.8C510.9 244.4 514.167 260.133 513.5 267.8" stroke="black" stroke-width="21"/>
<path d="M450 515C470.8 519.8 479.333 505.667 481 498" stroke="black" stroke-width="21"/>
<line x1="10.9999" y1="229.959" x2="11.9999" y2="498.959" stroke="black" stroke-width="22"/>
<path d="M11 232C11.8 205.6 30 199 39 199" stroke="black" stroke-width="22"/>
<path d="M296.25 232C295.45 205.6 277.25 199 268.25 199" stroke="black" stroke-width="22"/>
<line x1="38" y1="199" x2="269" y2="199" stroke="black" stroke-width="22"/>
<path d="M296.243 229.978L296.243 499" stroke="black" stroke-width="22"/>
<path d="M12 498C12 519.6 30 527.667 39 529" stroke="black" stroke-width="22"/>
<line x1="37" y1="529" x2="272" y2="529" stroke="black" stroke-width="22"/>
<path d="M341.559 213.565C335.803 212.858 330.564 216.951 329.857 222.707C329.151 228.463 333.244 233.701 338.999 234.408L341.559 213.565ZM340.279 223.986L338.999 234.408L493.837 253.42L495.116 242.998L496.396 232.576L341.559 213.565L340.279 223.986Z" fill="black"/>
<path d="M513.751 266.258L481.21 500.024" stroke="black" stroke-width="21"/>
<line x1="288.092" y1="495.278" x2="451.862" y2="515.387" stroke="black" stroke-width="21"/>
<path d="M268 529C291.216 529 296.329 508.333 295.984 498" stroke="black" stroke-width="22"/>
<line x1="16.6864" y1="448.499" x2="110.499" y2="337.314" stroke="black" stroke-width="22" stroke-linecap="round"/>
<path d="M212 452L113 338" stroke="black" stroke-width="22" stroke-linecap="round"/>
<path d="M227 385C222.97 380.454 216.018 380.035 211.472 384.065C206.926 388.094 206.507 395.046 210.536 399.593L227 385ZM296.768 480.296L305 473L227 385L218.768 392.296L210.536 399.593L288.536 487.593L296.768 480.296Z" fill="black"/>
<line x1="185.589" y1="422.871" x2="219.589" y2="391.871" stroke="black" stroke-width="22"/>
<path d="M247 298.5C247 320.868 228.868 339 206.5 339C184.132 339 166 320.868 166 298.5C166 276.132 184.132 258 206.5 258C228.868 258 247 276.132 247 298.5ZM188.275 298.5C188.275 308.565 196.435 316.725 206.5 316.725C216.565 316.725 224.725 308.565 224.725 298.5C224.725 288.435 216.565 280.275 206.5 280.275C196.435 280.275 188.275 288.435 188.275 298.5Z" fill="black"/>
<path d="M461 317.5C461 337.106 445.106 353 425.5 353C405.894 353 390 337.106 390 317.5C390 297.894 405.894 282 425.5 282C445.106 282 461 297.894 461 317.5ZM409.525 317.5C409.525 326.323 416.677 333.475 425.5 333.475C434.323 333.475 441.475 326.323 441.475 317.5C441.475 308.677 434.323 301.525 425.5 301.525C416.677 301.525 409.525 308.677 409.525 317.5Z" fill="black"/>
<path d="M432.067 399.207C428.809 394.41 422.279 393.161 417.482 396.419C412.684 399.677 411.436 406.207 414.693 411.004L432.067 399.207ZM482.313 491.898L491 486L432.067 399.207L423.38 405.106L414.693 411.004L473.627 497.797L482.313 491.898Z" fill="black"/>
<path d="M394.861 423.879L419.673 406.998" stroke="black" stroke-width="21" stroke-linecap="round"/>
<path d="M347.426 347.738L393.565 422.849" stroke="black" stroke-width="21" stroke-linecap="round"/>
</svg>
